<svg width="512" height="512" viewBox="0 0 512 512" fill="none" xmlns="http://www.w3.org/2000/svg">
<rect width="512" height="512" rx="70" fill="#ED4455"/>
<path d="M73.5 256C73.5 155.208 155.208 73.5 256 73.5C356.792 73.5 438.5 155.208 438.5 256C438.5 356.792 356.792 438.5 256 438.5C155.208 438.5 73.5001 356.792 73.5 256Z" stroke="white" stroke-width="35"/>
<path d="M231.47 280.387C231.799 280.796 232.252 281.142 232.611 281.535C237.206 287.258 244.13 291 252.008 291C265.809 291 277 279.758 277 265.86C277 258.47 273.78 251.914 268.763 247.307C268.107 246.568 267.513 245.814 266.544 245.075L165.528 167.751C162.59 165.472 158.354 165.362 155.275 167.751C151.602 170.597 150.914 175.911 153.743 179.606L231.47 280.387Z" fill="white"/>
<rect x="239" y="57" width="35" height="100" rx="17.5" fill="white"/>
</svg>
